#tb 0: 1/25
0,          0,          0,        1,    38016, 0x0bd22424
0,          1,          1,        1,    38016, 0x4eb601f0
0,          2,          2,        1,    38016, 0xe16de459
0,          3,          3,        1,    38016, 0xde2e0c37
0,          4,          4,        1,    38016, 0x14a0286b
0,          5,          5,        1,    38016, 0x37bc35b5
0,          6,          6,        1,    38016, 0xcfa24923
0,          7,          7,        1,    38016, 0xac755ba0
0,          8,          8,        1,    38016, 0x27d1822a
0,          9,          9,        1,    38016, 0xa8039548
0,         10,         10,        1,    38016, 0x400ea1fb
0,         11,         11,        1,    38016, 0x7d2ca44a
0,         12,         12,        1,    38016, 0xd42dae4f
0,         13,         13,        1,    38016, 0x39ce9599
0,         14,         14,        1,    38016, 0x37498aa1
0,         15,         15,        1,    38016, 0x8558911f
0,         16,         16,        1,    38016, 0x06a8a9ad
